<mxfile host="65bd71144e">
    <diagram id="GtjCWDLZ-1_r_suMsuVv" name="Page-1">
        <mxGraphModel dx="1352" dy="534" grid="1" gridSize="10" guides="1" tooltips="1" connect="1" arrows="1" fold="1" page="1" pageScale="1" pageWidth="850" pageHeight="1100" math="0" shadow="0">
            <root>
                <mxCell id="0"/>
                <mxCell id="1" parent="0"/>
                <mxCell id="6" style="edgeStyle=none;html=1;" edge="1" parent="1" source="2">
                    <mxGeometry relative="1" as="geometry">
                        <mxPoint x="120" y="90" as="targetPoint"/>
                    </mxGeometry>
                </mxCell>
                <mxCell id="2" value="1" style="ellipse;whiteSpace=wrap;html=1;" vertex="1" parent="1">
                    <mxGeometry x="30" y="50" width="70" height="80" as="geometry"/>
                </mxCell>
                <mxCell id="7" value="" style="edgeStyle=none;html=1;" edge="1" parent="1" source="3" target="4">
                    <mxGeometry relative="1" as="geometry"/>
                </mxCell>
                <mxCell id="3" value="2" style="ellipse;whiteSpace=wrap;html=1;" vertex="1" parent="1">
                    <mxGeometry x="130" y="50" width="70" height="80" as="geometry"/>
                </mxCell>
                <mxCell id="8" value="" style="edgeStyle=none;html=1;" edge="1" parent="1" source="4" target="5">
                    <mxGeometry relative="1" as="geometry"/>
                </mxCell>
                <mxCell id="4" value="3" style="ellipse;whiteSpace=wrap;html=1;" vertex="1" parent="1">
                    <mxGeometry x="230" y="50" width="70" height="80" as="geometry"/>
                </mxCell>
                <mxCell id="13" value="" style="edgeStyle=none;html=1;" edge="1" parent="1" source="5" target="11">
                    <mxGeometry relative="1" as="geometry"/>
                </mxCell>
                <mxCell id="5" value="4" style="ellipse;whiteSpace=wrap;html=1;" vertex="1" parent="1">
                    <mxGeometry x="350" y="50" width="70" height="80" as="geometry"/>
                </mxCell>
                <mxCell id="9" value="head" style="text;html=1;align=center;verticalAlign=middle;whiteSpace=wrap;rounded=0;" vertex="1" parent="1">
                    <mxGeometry x="25" y="20" width="60" height="30" as="geometry"/>
                </mxCell>
                <mxCell id="16" value="" style="edgeStyle=none;html=1;" edge="1" parent="1" source="11" target="15">
                    <mxGeometry relative="1" as="geometry"/>
                </mxCell>
                <mxCell id="11" value="5" style="ellipse;whiteSpace=wrap;html=1;" vertex="1" parent="1">
                    <mxGeometry x="450" y="50" width="70" height="80" as="geometry"/>
                </mxCell>
                <mxCell id="14" value="题目要求" style="text;html=1;align=center;verticalAlign=middle;whiteSpace=wrap;rounded=0;" vertex="1" parent="1">
                    <mxGeometry width="60" height="30" as="geometry"/>
                </mxCell>
                <mxCell id="15" value="null" style="ellipse;whiteSpace=wrap;html=1;" vertex="1" parent="1">
                    <mxGeometry x="550" y="50" width="70" height="80" as="geometry"/>
                </mxCell>
                <mxCell id="35" value="" style="edgeStyle=none;html=1;" edge="1" parent="1" source="23" target="30">
                    <mxGeometry relative="1" as="geometry"/>
                </mxCell>
                <mxCell id="23" value="1" style="ellipse;whiteSpace=wrap;html=1;" vertex="1" parent="1">
                    <mxGeometry x="110" y="160" width="70" height="80" as="geometry"/>
                </mxCell>
                <mxCell id="34" value="" style="edgeStyle=none;html=1;" edge="1" parent="1" source="25" target="23">
                    <mxGeometry relative="1" as="geometry"/>
                </mxCell>
                <mxCell id="25" value="2" style="ellipse;whiteSpace=wrap;html=1;" vertex="1" parent="1">
                    <mxGeometry x="220" y="160" width="70" height="80" as="geometry"/>
                </mxCell>
                <mxCell id="33" value="" style="edgeStyle=none;html=1;" edge="1" parent="1" source="27" target="25">
                    <mxGeometry relative="1" as="geometry"/>
                </mxCell>
                <mxCell id="27" value="3" style="ellipse;whiteSpace=wrap;html=1;" vertex="1" parent="1">
                    <mxGeometry x="320" y="160" width="70" height="80" as="geometry"/>
                </mxCell>
                <mxCell id="32" value="" style="edgeStyle=none;html=1;" edge="1" parent="1" source="28" target="27">
                    <mxGeometry relative="1" as="geometry"/>
                </mxCell>
                <mxCell id="28" value="4" style="ellipse;whiteSpace=wrap;html=1;" vertex="1" parent="1">
                    <mxGeometry x="425" y="160" width="70" height="80" as="geometry"/>
                </mxCell>
                <mxCell id="31" value="" style="edgeStyle=none;html=1;" edge="1" parent="1" source="29" target="28">
                    <mxGeometry relative="1" as="geometry"/>
                </mxCell>
                <mxCell id="29" value="5" style="ellipse;whiteSpace=wrap;html=1;" vertex="1" parent="1">
                    <mxGeometry x="550" y="160" width="70" height="80" as="geometry"/>
                </mxCell>
                <mxCell id="30" value="null" style="ellipse;whiteSpace=wrap;html=1;" vertex="1" parent="1">
                    <mxGeometry x="10" y="160" width="70" height="80" as="geometry"/>
                </mxCell>
                <mxCell id="36" value="head" style="text;html=1;align=center;verticalAlign=middle;whiteSpace=wrap;rounded=0;" vertex="1" parent="1">
                    <mxGeometry x="570" y="130" width="60" height="30" as="geometry"/>
                </mxCell>
                <mxCell id="37" value="如何做" style="text;html=1;align=center;verticalAlign=middle;whiteSpace=wrap;rounded=0;" vertex="1" parent="1">
                    <mxGeometry x="10" y="260" width="60" height="30" as="geometry"/>
                </mxCell>
                <mxCell id="49" value="" style="group" vertex="1" connectable="0" parent="1">
                    <mxGeometry x="20" y="340" width="590" height="80" as="geometry"/>
                </mxCell>
                <mxCell id="39" value="1" style="ellipse;whiteSpace=wrap;html=1;" vertex="1" parent="49">
                    <mxGeometry width="70" height="80" as="geometry"/>
                </mxCell>
                <mxCell id="40" value="" style="edgeStyle=none;html=1;" edge="1" parent="49" source="41" target="43">
                    <mxGeometry relative="1" as="geometry"/>
                </mxCell>
                <mxCell id="41" value="2" style="ellipse;whiteSpace=wrap;html=1;" vertex="1" parent="49">
                    <mxGeometry x="100" width="70" height="80" as="geometry"/>
                </mxCell>
                <mxCell id="42" value="" style="edgeStyle=none;html=1;" edge="1" parent="49" source="43" target="45">
                    <mxGeometry relative="1" as="geometry"/>
                </mxCell>
                <mxCell id="43" value="3" style="ellipse;whiteSpace=wrap;html=1;" vertex="1" parent="49">
                    <mxGeometry x="200" width="70" height="80" as="geometry"/>
                </mxCell>
                <mxCell id="45" value="4" style="ellipse;whiteSpace=wrap;html=1;" vertex="1" parent="49">
                    <mxGeometry x="320" width="70" height="80" as="geometry"/>
                </mxCell>
                <mxCell id="65" value="" style="edgeStyle=none;html=1;" edge="1" parent="49" source="47" target="48">
                    <mxGeometry relative="1" as="geometry"/>
                </mxCell>
                <mxCell id="47" value="5" style="ellipse;whiteSpace=wrap;html=1;" vertex="1" parent="49">
                    <mxGeometry x="420" width="70" height="80" as="geometry"/>
                </mxCell>
                <mxCell id="48" value="null" style="ellipse;whiteSpace=wrap;html=1;" vertex="1" parent="49">
                    <mxGeometry x="520" width="70" height="80" as="geometry"/>
                </mxCell>
                <mxCell id="44" value="" style="edgeStyle=none;html=1;" edge="1" parent="49" source="45" target="47">
                    <mxGeometry relative="1" as="geometry"/>
                </mxCell>
                <mxCell id="55" value="" style="group" vertex="1" connectable="0" parent="1">
                    <mxGeometry x="-10" y="290" width="250" height="30" as="geometry"/>
                </mxCell>
                <mxCell id="53" value="" style="edgeStyle=none;html=1;" edge="1" parent="55" source="50" target="51">
                    <mxGeometry relative="1" as="geometry"/>
                </mxCell>
                <mxCell id="50" value="current" style="text;html=1;align=center;verticalAlign=middle;whiteSpace=wrap;rounded=0;" vertex="1" parent="55">
                    <mxGeometry x="90" width="60" height="30" as="geometry"/>
                </mxCell>
                <mxCell id="51" value="prev" style="text;html=1;align=center;verticalAlign=middle;whiteSpace=wrap;rounded=0;" vertex="1" parent="55">
                    <mxGeometry width="60" height="30" as="geometry"/>
                </mxCell>
                <mxCell id="54" value="" style="edgeStyle=none;html=1;" edge="1" parent="55" source="52" target="50">
                    <mxGeometry relative="1" as="geometry"/>
                </mxCell>
                <mxCell id="52" value="next" style="text;html=1;align=center;verticalAlign=middle;whiteSpace=wrap;rounded=0;" vertex="1" parent="55">
                    <mxGeometry x="190" width="60" height="30" as="geometry"/>
                </mxCell>
                <mxCell id="56" value="初始化" style="text;html=1;align=center;verticalAlign=middle;whiteSpace=wrap;rounded=0;" vertex="1" parent="1">
                    <mxGeometry y="450" width="60" height="30" as="geometry"/>
                </mxCell>
                <mxCell id="57" value="curent:head" style="text;html=1;align=center;verticalAlign=middle;whiteSpace=wrap;rounded=0;" vertex="1" parent="1">
                    <mxGeometry x="20" y="480" width="60" height="30" as="geometry"/>
                </mxCell>
                <mxCell id="58" value="prev:null" style="text;html=1;align=center;verticalAlign=middle;whiteSpace=wrap;rounded=0;" vertex="1" parent="1">
                    <mxGeometry x="15" y="520" width="60" height="30" as="geometry"/>
                </mxCell>
                <mxCell id="60" value="Text" style="text;html=1;align=center;verticalAlign=middle;whiteSpace=wrap;rounded=0;" vertex="1" parent="1">
                    <mxGeometry x="180" y="320" width="60" height="30" as="geometry"/>
                </mxCell>
                <mxCell id="61" value="temp:current.next" style="text;html=1;align=center;verticalAlign=middle;whiteSpace=wrap;rounded=0;" vertex="1" parent="1">
                    <mxGeometry x="-15" y="560" width="160" height="30" as="geometry"/>
                </mxCell>
                <mxCell id="62" value="为什么要有这个临时指针，因为current.next要改变了，得趁着改变之前保存下来" style="text;html=1;align=center;verticalAlign=middle;whiteSpace=wrap;rounded=0;" vertex="1" parent="1">
                    <mxGeometry x="60" y="560" width="560" height="30" as="geometry"/>
                </mxCell>
                <mxCell id="67" value="null" style="ellipse;whiteSpace=wrap;html=1;" vertex="1" parent="1">
                    <mxGeometry x="-100" y="340" width="70" height="80" as="geometry"/>
                </mxCell>
                <mxCell id="68" value="" style="edgeStyle=none;html=1;" edge="1" parent="1" source="39" target="67">
                    <mxGeometry relative="1" as="geometry"/>
                </mxCell>
                <mxCell id="72" value="&lt;span style=&quot;color: rgb(0, 0, 0);&quot;&gt;步骤：&lt;br&gt;&lt;br&gt;1. 先保存temp=current.next&lt;/span&gt;&lt;br&gt;&lt;span style=&quot;color: rgb(0, 0, 0);&quot;&gt;2. 再断开，让crrent.next=prev&lt;br&gt;3. 再迭代做下一个，让prev=current,current=temp.注意先后顺序，是prev=current 再current=temp，否则current就找不到了&lt;br&gt;&lt;br&gt;&lt;/span&gt;" style="text;html=1;align=center;verticalAlign=middle;whiteSpace=wrap;rounded=0;" vertex="1" parent="1">
                    <mxGeometry x="-40" y="620" width="290" height="70" as="geometry"/>
                </mxCell>
            </root>
        </mxGraphModel>
    </diagram>
</mxfile>